<?xml version="1.0" encoding="UTF-8"?>
<svg id="_레이어_2" data-name="레이어 2" xmlns="http://www.w3.org/2000/svg" viewBox="0 0 700.14 241.4">
  <defs>
    <style>
      .cls-1 {
        fill: #6dfff6;
      }
    </style>
  </defs>
  <g id="_레이어_2-2" data-name=" 레이어 2">
    <g>
      <g>
        <path d="M524.42,241.4h-.68c-14.6-.02-88.4-1.1-107.92-20-9.15-8.82-14.01-15.7-17.92-21.23-5.46-7.73-8.2-11.61-20.82-16.8-11.44-4.68-26.88-4.77-27.03-4.77l.02-22c.8,0,19.84,.07,35.36,6.42,18.55,7.63,24.06,15.43,30.44,24.47,3.54,5.02,7.56,10.71,15.23,18.09,5.72,5.53,39.1,13.73,92.67,13.82,.28,0,.56,0,.84,0,49.36,0,91.91-7.11,108.57-18.17,12.14-8.06,26.41-33.79,35.51-64.03,10.06-33.45,12.22-66.19,5.77-87.58-5.68-18.85-16.87-27.62-35.19-27.62h-184.6V0h184.6c27.86,0,47.84,15.37,56.25,43.27,7.76,25.74,5.66,62.29-5.76,100.27-10.95,36.42-27.56,64.84-44.41,76.02-30.41,20.18-99.37,21.83-120.94,21.83Z"/>
        <path d="M175.61,241.36c-21.7,0-90.48-1.67-120.82-21.8-16.86-11.18-33.46-39.6-44.41-76.02C-1.05,105.56-3.15,69.01,4.62,43.27,13.03,15.37,33.01,0,60.87,0H245.47V22H60.87c-18.33,0-29.51,8.78-35.19,27.62-6.45,21.39-4.3,54.13,5.77,87.58,9.1,30.24,23.36,55.97,35.51,64.03,16.74,11.11,59.72,18.22,109.41,18.13,53.57-.1,86.97-8.29,92.68-13.78,7.66-7.38,11.68-13.08,15.22-18.11,6.39-9.07,11.9-16.9,30.46-24.46,15.51-6.34,34.54-6.41,35.35-6.41v22c-.14,0-15.58,.1-27.04,4.78-12.6,5.13-15.34,9.01-20.79,16.75-3.91,5.54-8.77,12.44-17.94,21.28-19.53,18.82-93.31,19.91-107.9,19.94-.26,0-.52,0-.79,0Z"/>
      </g>
      <g>
        <path class="cls-1" d="M524.67,232.9c-.31,0-.61,0-.92,0-41.8-.07-89.56-5.54-102.02-17.6-8.58-8.27-13.19-14.79-16.88-20.02-5.8-8.21-9.63-13.63-24.53-19.76-13.06-5.34-30.08-5.41-30.25-5.41v-5c.74,0,18.15,.07,32.15,5.79,16.25,6.68,20.64,12.9,26.72,21.5,3.76,5.33,8.02,11.37,16.27,19.31,9.77,9.46,50.3,16.12,98.56,16.2,.26,0,.52,0,.79,0,40.68,0,91.57-5.14,113.34-19.58,13.89-9.21,29.17-36.17,38.95-68.66,10.52-34.99,12.68-69.56,5.76-92.48-6.74-22.34-21.32-33.67-43.33-33.67h-184.6v-5h184.6c24.13,0,40.77,12.87,48.12,37.23,7.29,24.18,5.19,58.94-5.76,95.37-10.25,34.06-25.94,61.42-40.97,71.39-19.29,12.8-62.61,20.42-115.98,20.42Z"/>
        <path class="cls-1" d="M175.32,232.86c-53.32,0-96.57-7.6-115.83-20.38-15.03-9.97-30.73-37.33-40.97-71.39C7.56,104.67,5.46,69.91,12.75,45.72,20.1,21.37,36.74,8.5,60.87,8.5H245.47v5H60.87c-22.01,0-36.59,11.33-43.33,33.67-6.91,22.93-4.76,57.5,5.76,92.48,9.77,32.5,25.06,59.45,38.95,68.66,21.9,14.53,73.29,19.66,114.13,19.55,48.25-.09,88.78-6.74,98.56-16.16,8.25-7.95,12.51-14,16.27-19.34,6.08-8.63,10.47-14.86,26.72-21.48,13.99-5.72,31.41-5.78,32.14-5.78v5c-.17,0-17.19,.07-30.25,5.41-14.9,6.07-18.73,11.5-24.52,19.73-3.7,5.25-8.3,11.78-16.89,20.06-12.48,12.02-60.23,17.48-102.02,17.56-.35,0-.72,0-1.07,0Z"/>
      </g>
    </g>
  </g>
</svg>