<svg width="1524" height="555" viewBox="0 0 1524 555" fill="none" xmlns="http://www.w3.org/2000/svg">
<path opacity="0.9" d="M74.197 28.8411H1459.9L1494.81 152.136L1459.9 393.269L1343.15 517.655L1120.56 542.75L927.439 486.013L846.697 391.087H762.682H675.394L604.472 486.013L382.979 542.75L156.03 517.655L39.2817 332.167L32.7351 128.131L74.197 28.8411Z" fill="#2F2F2F"/>
<path d="M761.591 386.722C761.591 386.722 799.78 386.722 829.708 399.816C884.887 423.955 873.974 444.551 921.727 493.74C969.479 542.929 1300.56 551.7 1392.57 486.57C1484.59 421.44 1582.59 22.2945 1392.57 22.2945C1202.56 22.2945 989.844 22.2945 989.844 22.2945" stroke="black" stroke-width="43.6441"/>
<path d="M761.591 386.722C761.591 386.722 723.402 386.722 693.474 399.816C638.295 423.955 649.207 444.551 601.455 493.74C553.703 542.929 222.626 551.7 130.607 486.57C38.5886 421.44 -59.4052 22.2945 130.607 22.2945C320.62 22.2945 533.338 22.2945 533.338 22.2945" stroke="black" stroke-width="43.6441"/>
<g filter="url(#filter0_f_194_3645)">
<path fill-rule="evenodd" clip-rule="evenodd" d="M132.499 483.898C121.474 476.094 110.145 463.117 99.1413 446.14C88.1613 429.201 77.6158 408.456 68.0938 385.305C49.047 338.997 34.1875 283.292 28.0982 229.639C22.0003 175.911 24.7426 124.632 40.5251 86.9429C48.3971 68.1442 59.4646 52.8389 74.1923 42.2283C88.896 31.635 107.459 25.5678 130.607 25.5678H131.721H132.835H133.95H135.065H136.181H137.297H138.413H139.53H140.647H141.765H142.883H144.002H145.121H146.241H147.36H148.48H149.601H150.722H151.843H152.964H154.086H155.208H156.331H157.453H158.576H159.7H160.823H161.947H163.07H164.195H165.319H166.443H167.568H168.693H169.818H170.943H172.068H173.194H174.319H175.445H176.571H177.697H178.823H179.949H181.075H182.201H183.327H184.453H185.579H186.706H187.832H188.958H190.084H191.21H192.336H193.462H194.588H195.714H196.84H197.965H199.091H200.216H201.342H202.467H203.592H204.716H205.841H206.966H208.09H209.214H210.338H211.461H212.585H213.708H214.831H215.953H217.076H218.198H219.319H220.441H221.562H222.683H223.803H224.923H226.043H227.162H228.281H229.4H230.518H231.635H232.753H233.87H234.986H236.102H237.217H238.332H239.447H240.561H241.674H242.787H243.9H245.012H246.123H247.234H248.344H249.454H250.563H251.671H252.779H253.886H254.992H256.098H257.204H258.308H259.412H260.515H261.618H262.719H263.82H264.921H266.02H267.119H268.217H269.314H270.411H271.507H272.602H273.696H274.789H275.881H276.973H278.063H279.153H280.242H281.33H282.417H283.504H284.589H285.673H286.757H287.839H288.921H290.001H291.081H292.16H293.237H294.314H295.389H296.464H297.537H298.61H299.681H300.751H301.82H302.888H303.955H305.021H306.086H307.149H308.212H309.273H310.333H311.392H312.449H313.506H314.561H315.615H316.668H317.719H318.77H319.819H320.866H321.913H322.958H324.002H325.044H326.085H327.125H328.163H329.201H330.236H331.271H332.304H333.335H334.365H335.394H336.421H337.447H338.471H339.494H340.516H341.535H342.554H343.571H344.586H345.6H346.612H347.623H348.632H349.64H350.646H351.65H352.653H353.654H354.654H355.652H356.648H357.643H358.635H359.627H360.616H361.604H362.59H363.575H364.558H365.539H366.518H367.495H369.445H371.387H373.322H374.287H375.25H377.17H379.083H380.988H381.938H382.886H384.776H386.658H388.532H389.466H390.398H392.255H395.946H397.779H398.693H399.604H403.227H406.816H407.708H408.597H410.369H413.886H415.631H416.5H417.366H419.092H420.809H422.516H423.366H424.214H425.901H427.579H429.247H430.078H430.906H431.731H432.554H433.374H434.192H435.007H435.819H436.629H437.437H438.242H439.044H439.844H440.641H441.435H442.227H443.016H443.802H444.586H445.367H446.145H446.921H447.693H448.464H449.231H449.996H450.758H451.517H452.273H453.026H453.777H454.525H455.27H456.012H456.752H457.488H458.222H458.953H459.681H460.406H461.128H461.847H462.563H463.276H463.987H464.694H465.398H466.1H466.798H467.494H468.186H468.875H469.562H470.245H470.925H471.602H472.276H472.947H473.615H474.28H474.942H475.6H476.256H476.908H477.557H478.203H478.845H479.485H480.121H480.754H481.384H482.011H482.634H483.254H483.871H484.485H485.095H485.702H486.305H486.906H487.503H488.096H488.687H489.274H489.857H490.437H491.014H491.588H492.158H492.724H493.287H493.847H494.403H494.956H495.505H496.051H496.593H497.132H497.667H498.199H498.727H499.251H499.772H500.29H500.804H501.314H501.821H502.324H502.823H503.319H503.811H504.3H504.784H505.265H505.743H506.217H506.687H507.153H507.616H508.074H508.529H508.981H509.428H509.872H510.312H510.748H511.181H511.609H512.034H512.455H512.872H513.285H513.694H514.099H514.501H514.898H515.292H515.681H516.067H516.449H516.827H517.201H517.57H517.936H518.298H518.656H519.01H519.36H519.705H520.047H520.385H520.718H521.047H521.373H521.694H522.011H522.324H522.633H522.938H523.238H523.534H523.826H524.114H524.398H524.678H524.953H525.224H525.491H525.753H526.012H526.266H526.515H526.761H527.002H527.239H527.471H527.699H527.923H528.142H528.357H528.568H528.774H528.976H529.174H529.367H529.555H529.739H529.919H530.094H530.265H530.431H530.593H530.75H530.903H531.051H531.194H531.333H531.468H531.598H531.723H531.844H531.96H532.071H532.178H532.281H532.378H532.471H532.559H532.643H532.722H532.796H532.865H532.93H532.99H533.046H533.096H533.142H533.183H533.219H533.251H533.277H533.299H533.316H533.328H533.335C533.337 25.5678 533.338 25.5678 533.338 22.2945C533.338 19.0212 533.337 19.0212 533.335 19.0212H533.328H533.316H533.299H533.277H533.251H533.219H533.183H533.142H533.096H533.046H532.99H532.93H532.865H532.796H532.722H532.643H532.559H532.471H532.378H532.281H532.178H532.071H531.96H531.844H531.723H531.598H531.468H531.333H531.194H531.051H530.903H530.75H530.593H530.431H530.265H530.094H529.919H529.739H529.555H529.367H529.174H528.976H528.774H528.568H528.357H528.142H527.923H527.699H527.471H527.239H527.002H526.761H526.515H526.266H526.012H525.753H525.491H525.224H524.953H524.678H524.398H524.114H523.826H523.534H523.238H522.938H522.633H522.324H522.011H521.694H521.373H521.047H520.718H520.385H520.047H519.705H519.36H519.01H518.656H518.298H517.936H517.57H517.201H516.827H516.449H516.067H515.681H515.292H514.898H514.501H514.099H513.694H513.285H512.872H512.455H512.034H511.609H511.181H510.748H510.312H509.872H509.428H508.981H508.529H508.074H507.616H507.153H506.687H506.217H505.743H505.265H504.784H504.3H503.811H503.319H502.823H502.324H501.821H501.314H500.804H500.29H499.772H499.251H498.727H498.199H497.667H497.132H496.593H496.051H495.505H494.956H494.403H493.847H493.287H492.724H492.158H491.588H491.014H490.437H489.857H489.274H488.687H488.096H487.503H486.906H486.305H485.702H485.095H484.485H483.871H483.254H482.634H482.011H481.384H480.754H480.121H479.485H478.845H478.203H477.557H476.908H476.256H475.6H474.942H474.28H473.615H472.947H472.276H471.602H470.925H470.245H469.562H468.875H468.186H467.494H466.798H466.1H465.398H464.694H463.987H463.276H462.563H461.847H461.128H460.406H459.681H458.953H458.222H457.488H456.752H456.012H455.27H454.525H453.777H453.026H452.273H451.517H450.758H449.996H449.231H448.464H447.693H446.921H446.145H445.367H444.586H443.802H443.016H442.227H441.435H440.641H439.844H439.044H438.242H437.437H436.629H435.819H435.007H434.192H433.374H432.554H431.731H430.906H430.078H429.247H427.579H425.901H424.214H423.366H422.516H420.809H419.092H417.366H416.5H415.631H413.886H410.369H408.597H407.708H406.816H403.227H399.604H398.693H397.779H395.946H392.255H390.398H389.466H388.532H386.658H384.776H382.886H381.938H380.988H379.083H377.17H375.25H374.287H373.322H371.387H369.445H367.495H366.518H365.539H364.558H363.575H362.59H361.604H360.616H359.627H358.635H357.643H356.648H355.652H354.654H353.654H352.653H351.65H350.646H349.64H348.632H347.623H346.612H345.6H344.586H343.571H342.554H341.535H340.516H339.494H338.471H337.447H336.421H335.394H334.365H333.335H332.304H331.271H330.236H329.201H328.163H327.125H326.085H325.044H324.002H322.958H321.913H320.866H319.819H318.77H317.719H316.668H315.615H314.561H313.506H312.449H311.392H310.333H309.273H308.212H307.149H306.086H305.021H303.955H302.888H301.82H300.751H299.681H298.61H297.537H296.464H295.389H294.314H293.237H292.16H291.081H290.001H288.921H287.839H286.757H285.673H284.589H283.504H282.417H281.33H280.242H279.153H278.063H276.973H275.881H274.789H273.696H272.602H271.507H270.411H269.314H268.217H267.119H266.02H264.921H263.82H262.719H261.618H260.515H259.412H258.308H257.204H256.098H254.992H253.886H252.779H251.671H250.563H249.454H248.344H247.234H246.123H245.012H243.9H242.787H241.674H240.561H239.447H238.332H237.217H236.102H234.986H233.87H232.753H231.635H230.518H229.4H228.281H227.162H226.043H224.923H223.803H222.683H221.562H220.441H219.319H218.198H217.076H215.953H214.831H213.708H212.585H211.461H210.338H209.214H208.09H206.966H205.841H204.716H203.592H202.467H201.342H200.216H199.091H197.965H196.84H195.714H194.588H193.462H192.336H191.21H190.084H188.958H187.832H186.706H185.579H184.453H183.327H182.201H181.075H179.949H178.823H177.697H176.571H175.445H174.319H173.194H172.068H170.943H169.818H168.693H167.568H166.443H165.319H164.195H163.07H161.947H160.823H159.7H158.576H157.453H156.331H155.208H154.086H152.964H151.843H150.722H149.601H148.48H147.36H146.241H145.121H144.002H142.883H141.765H140.647H139.53H138.413H137.297H136.181H135.065H133.95H132.835H131.721H130.607C106.253 19.0212 86.3129 25.4273 70.3655 36.9166C54.4422 48.3887 42.7103 64.7755 34.4866 84.4142C18.0775 123.6 15.4421 176.179 21.5934 230.377C27.7533 284.652 42.7699 340.946 62.0393 387.795C71.6754 411.223 82.3981 432.346 93.6478 449.701C104.874 467.02 116.737 480.762 128.716 489.241C152.349 505.969 190.909 517.726 235.737 525.311C280.685 532.917 332.379 536.398 382.638 536.298C432.894 536.197 481.82 532.516 521.233 525.756C540.936 522.377 558.336 518.216 572.367 513.316C586.304 508.449 597.292 502.728 603.804 496.02C622.393 476.871 632.289 461.872 640.406 449.566C642.818 445.911 645.072 442.494 647.351 439.276C657.145 425.447 667.742 414.646 694.786 402.815C709.334 396.45 726.009 393.227 739.156 391.608C745.708 390.801 751.337 390.398 755.322 390.196C757.314 390.096 758.892 390.045 759.968 390.02L760.185 390.016L760.281 390.014C760.668 390.006 760.973 390.001 761.192 389.999L761.331 389.997C761.401 389.997 761.457 389.996 761.499 389.996L761.572 389.996L761.589 389.996H761.59H761.592H761.594L761.61 389.996L761.684 389.996C761.725 389.996 761.781 389.997 761.851 389.997L761.991 389.999C762.209 390.001 762.514 390.006 762.901 390.014C763 390.016 763.105 390.018 763.214 390.02C764.29 390.045 765.869 390.096 767.86 390.196C771.845 390.398 777.474 390.801 784.026 391.608C797.174 393.227 813.848 396.45 828.396 402.815C855.44 414.646 866.037 425.447 875.831 439.276C878.11 442.494 880.365 445.911 882.776 449.566C890.894 461.872 900.789 476.871 919.378 496.02C925.89 502.728 936.878 508.449 950.815 513.316C964.847 518.216 982.246 522.377 1001.95 525.756C1041.36 532.516 1090.29 536.197 1140.54 536.298C1190.8 536.398 1242.5 532.917 1287.45 525.311C1332.27 517.726 1370.83 505.969 1394.47 489.241C1406.45 480.762 1418.31 467.02 1429.53 449.701C1440.78 432.346 1451.51 411.223 1461.14 387.795C1480.41 340.946 1495.43 284.652 1501.59 230.377C1507.74 176.179 1505.1 123.6 1488.7 84.4142C1480.47 64.7755 1468.74 48.3887 1452.82 36.9166C1436.87 25.4273 1416.93 19.0212 1392.57 19.0212H1391.46H1390.35H1389.23H1388.12H1387H1385.89H1384.77H1383.65H1382.53H1381.42H1380.3H1379.18H1378.06H1376.94H1375.82H1374.7H1373.58H1372.46H1371.34H1370.22H1369.1H1367.97H1366.85H1365.73H1364.61H1363.48H1362.36H1361.24H1360.11H1358.99H1357.86H1356.74H1355.61H1354.49H1353.36H1352.24H1351.11H1349.99H1348.86H1347.74H1346.61H1345.49H1344.36H1343.23H1342.11H1340.98H1339.86H1338.73H1337.6H1336.48H1335.35H1334.22H1333.1H1331.97H1330.85H1329.72H1328.59H1327.47H1326.34H1325.22H1324.09H1322.97H1321.84H1320.72H1319.59H1318.47H1317.34H1316.22H1315.09H1313.97H1312.84H1311.72H1310.6H1309.47H1308.35H1307.23H1306.11H1304.98H1303.86H1302.74H1301.62H1300.5H1299.38H1298.26H1297.14H1296.02H1294.9H1293.78H1292.66H1291.55H1290.43H1289.31H1288.2H1287.08H1285.96H1284.85H1283.74H1282.62H1281.51H1280.39H1279.28H1278.17H1277.06H1275.95H1274.84H1273.73H1272.62H1271.51H1270.4H1269.3H1268.19H1267.08H1265.98H1264.87H1263.77H1262.67H1261.56H1260.46H1259.36H1258.26H1257.16H1256.06H1254.96H1253.87H1252.77H1251.68H1250.58H1249.49H1248.39H1247.3H1246.21H1245.12H1244.03H1242.94H1241.85H1240.76H1239.68H1238.59H1237.51H1236.43H1235.34H1234.26H1233.18H1232.1H1231.02H1229.94H1228.87H1227.79H1226.72H1225.65H1224.57H1223.5H1222.43H1221.36H1220.29H1219.23H1218.16H1217.1H1216.03H1214.97H1213.91H1212.85H1211.79H1210.73H1209.68H1208.62H1207.57H1206.51H1205.46H1204.41H1203.36H1202.32H1201.27H1200.22H1199.18H1198.14H1197.1H1196.06H1195.02H1193.98H1192.95H1191.91H1190.88H1189.85H1188.82H1187.79H1186.76H1185.74H1184.71H1183.69H1182.67H1181.65H1180.63H1179.61H1178.6H1177.58H1176.57H1175.56H1174.55H1173.54H1172.54H1171.53H1170.53H1169.53H1168.53H1167.53H1166.53H1165.54H1164.55H1163.56H1162.57H1161.58H1160.59H1159.61H1158.62H1157.64H1156.66H1155.69H1153.74H1151.8H1149.86H1148.9H1147.93H1146.01H1144.1H1142.19H1141.24H1140.3H1138.41H1136.52H1134.65H1133.72H1132.78H1130.93H1127.24H1125.4H1124.49H1123.58H1119.95H1116.37H1115.47H1114.59H1112.81H1109.3H1107.55H1106.68H1105.82H1104.09H1102.37H1100.67H1099.82H1098.97H1097.28H1095.6H1093.93H1093.1H1092.28H1091.45H1090.63H1089.81H1088.99H1088.18H1087.36H1086.55H1085.75H1084.94H1084.14H1083.34H1082.54H1081.75H1080.96H1080.17H1079.38H1078.6H1077.82H1077.04H1076.26H1075.49H1074.72H1073.95H1073.19H1072.42H1071.67H1070.91H1070.16H1069.41H1068.66H1067.91H1067.17H1066.43H1065.69H1064.96H1064.23H1063.5H1062.78H1062.05H1061.34H1060.62H1059.91H1059.2H1058.49H1057.78H1057.08H1056.38H1055.69H1055H1054.31H1053.62H1052.94H1052.26H1051.58H1050.91H1050.23H1049.57H1048.9H1048.24H1047.58H1046.93H1046.27H1045.63H1044.98H1044.34H1043.7H1043.06H1042.43H1041.8H1041.17H1040.55H1039.93H1039.31H1038.7H1038.09H1037.48H1036.88H1036.28H1035.68H1035.09H1034.5H1033.91H1033.32H1032.74H1032.17H1031.59H1031.02H1030.46H1029.9H1029.34H1028.78H1028.23H1027.68H1027.13H1026.59H1026.05H1025.52H1024.98H1024.46H1023.93H1023.41H1022.89H1022.38H1021.87H1021.36H1020.86H1020.36H1019.86H1019.37H1018.88H1018.4H1017.92H1017.44H1016.97H1016.5H1016.03H1015.57H1015.11H1014.65H1014.2H1013.75H1013.31H1012.87H1012.43H1012H1011.57H1011.15H1010.73H1010.31H1009.9H1009.49H1009.08H1008.68H1008.28H1007.89H1007.5H1007.11H1006.73H1006.36H1005.98H1005.61H1005.25H1004.88H1004.53H1004.17H1003.82H1003.48H1003.14H1002.8H1002.46H1002.13H1001.81H1001.49H1001.17H1000.86H1000.55H1000.24H999.944H999.648H999.356H999.068H998.784H998.505H998.229H997.958H997.691H997.429H997.171H996.917H996.667H996.421H996.18H995.943H995.711H995.483H995.259H995.04H994.825H994.614H994.408H994.206H994.009H993.816H993.627H993.443H993.263H993.088H992.917H992.751H992.59H992.432H992.28H992.132H991.988H991.849H991.714H991.584H991.459H991.338H991.222H991.111H991.004H990.902H990.804H990.711H990.623H990.539H990.46H990.386H990.317H990.252H990.192H990.137H990.086H990.04H989.999H989.963H989.932H989.905H989.883H989.866H989.854H989.847C989.845 19.0212 989.844 19.0212 989.844 22.2945C989.844 25.5678 989.845 25.5678 989.847 25.5678H989.854H989.866H989.883H989.905H989.932H989.963H989.999H990.04H990.086H990.137H990.192H990.252H990.317H990.386H990.46H990.539H990.623H990.711H990.804H990.902H991.004H991.111H991.222H991.338H991.459H991.584H991.714H991.849H991.988H992.132H992.28H992.432H992.59H992.751H992.917H993.088H993.263H993.443H993.627H993.816H994.009H994.206H994.408H994.614H994.825H995.04H995.259H995.483H995.711H995.943H996.18H996.421H996.667H996.917H997.171H997.429H997.691H997.958H998.229H998.505H998.784H999.068H999.356H999.648H999.944H1000.24H1000.55H1000.86H1001.17H1001.49H1001.81H1002.13H1002.46H1002.8H1003.14H1003.48H1003.82H1004.17H1004.53H1004.88H1005.25H1005.61H1005.98H1006.36H1006.73H1007.11H1007.5H1007.89H1008.28H1008.68H1009.08H1009.49H1009.9H1010.31H1010.73H1011.15H1011.57H1012H1012.43H1012.87H1013.31H1013.75H1014.2H1014.65H1015.11H1015.57H1016.03H1016.5H1016.97H1017.44H1017.92H1018.4H1018.88H1019.37H1019.86H1020.36H1020.86H1021.36H1021.87H1022.38H1022.89H1023.41H1023.93H1024.46H1024.98H1025.52H1026.05H1026.59H1027.13H1027.68H1028.23H1028.78H1029.34H1029.9H1030.46H1031.02H1031.59H1032.17H1032.74H1033.32H1033.91H1034.5H1035.09H1035.68H1036.28H1036.88H1037.48H1038.09H1038.7H1039.31H1039.93H1040.55H1041.17H1041.8H1042.43H1043.06H1043.7H1044.34H1044.98H1045.63H1046.27H1046.93H1047.58H1048.24H1048.9H1049.57H1050.23H1050.91H1051.58H1052.26H1052.94H1053.62H1054.31H1055H1055.69H1056.38H1057.08H1057.78H1058.49H1059.2H1059.91H1060.62H1061.34H1062.05H1062.78H1063.5H1064.23H1064.96H1065.69H1066.43H1067.17H1067.91H1068.66H1069.41H1070.16H1070.91H1071.67H1072.42H1073.19H1073.95H1074.72H1075.49H1076.26H1077.04H1077.82H1078.6H1079.38H1080.17H1080.96H1081.75H1082.54H1083.34H1084.14H1084.94H1085.75H1086.55H1087.36H1088.18H1088.99H1089.81H1090.63H1091.45H1092.28H1093.1H1093.93H1095.6H1097.28H1098.97H1099.82H1100.67H1102.37H1104.09H1105.82H1106.68H1107.55H1109.3H1112.81H1114.59H1115.47H1116.37H1119.95H1123.58H1124.49H1125.4H1127.24H1130.93H1132.78H1133.72H1134.65H1136.52H1138.41H1140.3H1141.24H1142.19H1144.1H1146.01H1147.93H1148.9H1149.86H1151.8H1153.74H1155.69H1156.66H1157.64H1158.62H1159.61H1160.59H1161.58H1162.57H1163.56H1164.55H1165.54H1166.53H1167.53H1168.53H1169.53H1170.53H1171.53H1172.54H1173.54H1174.55H1175.56H1176.57H1177.58H1178.6H1179.61H1180.63H1181.65H1182.67H1183.69H1184.71H1185.74H1186.76H1187.79H1188.82H1189.85H1190.88H1191.91H1192.95H1193.98H1195.02H1196.06H1197.1H1198.14H1199.18H1200.22H1201.27H1202.32H1203.36H1204.41H1205.46H1206.51H1207.57H1208.62H1209.68H1210.73H1211.79H1212.85H1213.91H1214.97H1216.03H1217.1H1218.16H1219.23H1220.29H1221.36H1222.43H1223.5H1224.57H1225.65H1226.72H1227.79H1228.87H1229.94H1231.02H1232.1H1233.18H1234.26H1235.34H1236.43H1237.51H1238.59H1239.68H1240.76H1241.85H1242.94H1244.03H1245.12H1246.21H1247.3H1248.39H1249.49H1250.58H1251.68H1252.77H1253.87H1254.96H1256.06H1257.16H1258.26H1259.36H1260.46H1261.56H1262.67H1263.77H1264.87H1265.98H1267.08H1268.19H1269.3H1270.4H1271.51H1272.62H1273.73H1274.84H1275.95H1277.06H1278.17H1279.28H1280.39H1281.51H1282.62H1283.74H1284.85H1285.96H1287.08H1288.2H1289.31H1290.43H1291.55H1292.66H1293.78H1294.9H1296.02H1297.14H1298.26H1299.38H1300.5H1301.62H1302.74H1303.86H1304.98H1306.11H1307.23H1308.35H1309.47H1310.6H1311.72H1312.84H1313.97H1315.09H1316.22H1317.34H1318.47H1319.59H1320.72H1321.84H1322.97H1324.09H1325.22H1326.34H1327.47H1328.59H1329.72H1330.85H1331.97H1333.1H1334.22H1335.35H1336.48H1337.6H1338.73H1339.86H1340.98H1342.11H1343.23H1344.36H1345.49H1346.61H1347.74H1348.86H1349.99H1351.11H1352.24H1353.36H1354.49H1355.61H1356.74H1357.86H1358.99H1360.11H1361.24H1362.36H1363.48H1364.61H1365.73H1366.85H1367.97H1369.1H1370.22H1371.34H1372.46H1373.58H1374.7H1375.82H1376.94H1378.06H1379.18H1380.3H1381.42H1382.53H1383.65H1384.77H1385.89H1387H1388.12H1389.23H1390.35H1391.46H1392.57C1415.72 25.5678 1434.29 31.635 1448.99 42.2283C1463.72 52.8389 1474.79 68.1442 1482.66 86.9429C1498.44 124.632 1501.18 175.911 1495.08 229.639C1488.99 283.292 1474.14 338.997 1455.09 385.305C1445.57 408.456 1435.02 429.201 1424.04 446.14C1413.04 463.117 1401.71 476.094 1390.68 483.898C1368.31 499.736 1330.98 511.306 1286.35 518.856C1241.85 526.387 1190.54 529.851 1140.56 529.751C1090.57 529.651 1042.02 525.988 1003.06 519.304C983.567 515.961 966.548 511.876 952.974 507.135C939.306 502.362 929.502 497.049 924.076 491.46C905.958 472.798 896.478 458.433 888.389 446.177L888.389 446.176L888.388 446.175C885.923 442.439 883.586 438.899 881.174 435.492C870.691 420.692 859.155 409.125 831.02 396.817C815.64 390.088 798.256 386.764 784.827 385.11C778.09 384.281 772.301 383.866 768.191 383.658C766.135 383.554 764.496 383.502 763.366 383.476C763.149 383.471 762.951 383.466 762.772 383.463C762.485 383.458 762.248 383.455 762.064 383.453C761.914 383.451 761.799 383.45 761.719 383.45L761.628 383.449L761.602 383.449H761.595H761.592C761.592 383.449 761.591 383.449 761.591 384.645C761.591 383.449 761.59 383.449 761.59 383.449H761.587H761.58L761.555 383.449L761.463 383.45C761.384 383.45 761.268 383.451 761.119 383.453C760.819 383.456 760.381 383.462 759.816 383.476C758.686 383.502 757.048 383.554 754.991 383.658C750.881 383.866 745.092 384.281 738.356 385.11C724.926 386.764 707.542 390.088 692.162 396.817C664.027 409.125 652.491 420.692 642.008 435.492C639.596 438.899 637.26 442.439 634.794 446.175L634.793 446.176L634.793 446.177C626.704 458.433 617.224 472.798 599.107 491.46C593.68 497.049 583.877 502.362 570.208 507.135C556.634 511.876 539.615 515.961 520.127 519.304C481.157 525.988 432.609 529.651 382.625 529.751C332.643 529.851 281.33 526.387 236.829 518.856C192.207 511.306 154.875 499.736 132.499 483.898Z" fill="#6DFFF6"/>
</g>
<path d="M761.591 386.722C761.591 386.722 799.78 386.722 829.708 399.816C884.887 423.955 873.974 444.551 921.727 493.74C969.479 542.929 1300.56 551.7 1392.57 486.57C1484.59 421.44 1582.59 22.2945 1392.57 22.2945C1202.56 22.2945 989.844 22.2945 989.844 22.2945" stroke="#6DFFF6" stroke-width="6.54661"/>
<path d="M761.591 386.722C761.591 386.722 723.402 386.722 693.474 399.816C638.295 423.955 649.207 444.551 601.455 493.74C553.703 542.929 222.626 551.7 130.607 486.57C38.5886 421.44 -59.4052 22.2945 130.607 22.2945C320.62 22.2945 533.338 22.2945 533.338 22.2945" stroke="#6DFFF6" stroke-width="6.54661"/>
<defs>
<filter id="filter0_f_194_3645" x="1.09315" y="1.56355" width="1521" height="552.194" filterUnits="userSpaceOnUse" color-interpolation-filters="sRGB">
<feFlood flood-opacity="0" result="BackgroundImageFix"/>
<feBlend mode="normal" in="SourceGraphic" in2="BackgroundImageFix" result="shape"/>
<feGaussianBlur stdDeviation="8.72881" result="effect1_foregroundBlur_194_3645"/>
</filter>
</defs>
</svg>
