<svg width="1436" height="470" viewBox="0 0 1436 470" fill="none" xmlns="http://www.w3.org/2000/svg">
<path fill-rule="evenodd" clip-rule="evenodd" d="M714.5 322.783C680.921 324.086 618.551 335.525 589.207 374.155C584.39 381.124 580.245 387.968 576.26 394.547C560.804 420.066 547.753 441.615 507.207 451.155C456.707 462.655 294.707 481.655 179.207 454.655C143.207 446.155 96.7069 435.155 77.2069 403.155C57.7069 371.155 20.7069 309.655 8.70691 222.155C8.17569 216.872 7.6584 211.788 7.15967 206.886C-0.791014 128.743 -4.02406 96.9675 16.2069 46.1549C18.7164 42.7898 20.9852 39.5809 23.1358 36.5393C39.8381 12.9162 49.4066 -0.616989 109.207 1.15487C163.207 2.75487 384.707 1.82154 488.707 1.15487H721.707V1.5H947.5C1051.5 2.16666 1273 3.1 1327 1.5C1386.8 -0.271866 1396.37 13.2613 1413.07 36.8844C1415.22 39.9261 1417.49 43.135 1420 46.5C1440.23 97.3127 1437 129.088 1429.05 207.231C1428.55 212.133 1428.03 217.217 1427.5 222.5C1415.5 310 1378.5 371.5 1359 403.5C1339.5 435.5 1293 446.5 1257 455C1141.5 482 979.5 463 929 451.5C888.454 441.96 875.403 420.411 859.947 394.892C855.962 388.313 851.817 381.469 847 374.5C815.4 332.9 745.5 322.833 714.5 323V322.783Z" fill="#D9D9D9"/>
<path d="M589.207 374.155L588.809 373.852L588.802 373.861L588.796 373.871L589.207 374.155ZM714.5 322.783H715V322.264L714.481 322.284L714.5 322.783ZM576.26 394.547L576.688 394.806L576.688 394.806L576.26 394.547ZM507.207 451.155L507.318 451.642L507.321 451.642L507.207 451.155ZM179.207 454.655L179.092 455.142L179.093 455.142L179.207 454.655ZM8.70691 222.155L8.20942 222.205L8.21032 222.214L8.21155 222.223L8.70691 222.155ZM7.15967 206.886L6.66224 206.937L6.66224 206.937L7.15967 206.886ZM16.2069 46.1549L15.8061 45.856L15.7667 45.9087L15.7424 45.9699L16.2069 46.1549ZM23.1358 36.5393L23.544 36.828L23.544 36.828L23.1358 36.5393ZM109.207 1.15487L109.222 0.655092L109.207 1.15487ZM488.707 1.15487V0.654863L488.704 0.654883L488.707 1.15487ZM721.707 1.15487H722.207V0.654873H721.707V1.15487ZM721.707 1.5H721.207V2H721.707V1.5ZM947.5 1.5L947.503 0.999996H947.5V1.5ZM1327 1.5L1327.01 1.99978L1327.01 1.99978L1327 1.5ZM1413.07 36.8844L1413.48 36.5958L1413.48 36.5958L1413.07 36.8844ZM1420 46.5L1420.46 46.315L1420.44 46.2539L1420.4 46.2011L1420 46.5ZM1429.05 207.231L1429.54 207.282L1429.54 207.282L1429.05 207.231ZM1427.5 222.5L1428 222.568L1428 222.559L1428 222.55L1427.5 222.5ZM1257 455L1257.11 455.487L1257.11 455.487L1257 455ZM929 451.5L928.885 451.987L928.889 451.988L929 451.5ZM859.947 394.892L859.519 395.151L859.519 395.151L859.947 394.892ZM847 374.5L847.411 374.216L847.405 374.206L847.398 374.198L847 374.5ZM714.5 323H714V323.503L714.503 323.5L714.5 323ZM589.605 374.457C604.191 355.255 627.013 342.781 650.424 334.946C673.828 327.112 697.767 323.933 714.519 323.283L714.481 322.284C697.653 322.937 673.618 326.128 650.106 333.997C626.602 341.864 603.566 354.425 588.809 373.852L589.605 374.457ZM576.688 394.806C580.673 388.225 584.811 381.394 589.618 374.439L588.796 373.871C583.969 380.854 579.816 387.71 575.832 394.288L576.688 394.806ZM507.321 451.642C527.672 446.853 541.153 439.042 551.487 429.205C561.807 419.382 568.966 407.556 576.688 394.806L575.832 394.288C568.098 407.057 561.004 418.765 550.798 428.481C540.605 438.183 527.288 445.916 507.092 450.668L507.321 451.642ZM179.093 455.142C236.908 468.657 306.335 470.655 367.605 467.842C428.876 465.028 482.032 457.401 507.318 451.642L507.096 450.667C481.882 456.409 428.788 464.031 367.559 466.843C306.328 469.655 237.006 467.653 179.321 454.168L179.093 455.142ZM76.7799 403.415C86.6086 419.544 103.22 430.348 121.825 438.178C140.433 446.01 161.099 450.893 179.092 455.142L179.322 454.168C161.315 449.917 140.731 445.05 122.213 437.257C103.694 429.462 87.3052 418.766 77.6339 402.895L76.7799 403.415ZM8.21155 222.223C20.2262 309.83 57.2724 371.403 76.7799 403.415L77.6339 402.895C58.1414 370.907 21.1876 309.48 9.20227 222.087L8.21155 222.223ZM6.66224 206.937C7.16097 211.839 7.67823 216.923 8.20942 222.205L9.2044 222.105C8.67314 216.822 8.15583 211.737 7.65711 206.836L6.66224 206.937ZM15.7424 45.9699C-4.53975 96.9111 -1.28739 128.804 6.66224 206.937L7.65711 206.836C-0.294638 128.682 -3.50837 97.024 16.6714 46.3398L15.7424 45.9699ZM22.7275 36.2507C20.5766 39.2928 18.3113 42.4967 15.8061 45.856L16.6077 46.4538C19.1216 43.0829 21.3939 39.8691 23.544 36.828L22.7275 36.2507ZM109.222 0.655092C79.2987 -0.231517 61.8521 2.7052 49.7819 8.87882C37.7013 15.0578 31.0692 24.4525 22.7275 36.2507L23.544 36.828C31.9047 25.003 38.4081 15.8195 50.2373 9.76912C62.077 3.71334 79.3148 0.769401 109.192 1.65465L109.222 0.655092ZM488.704 0.654883C384.698 1.32159 163.21 2.25475 109.222 0.655092L109.192 1.65465C163.204 3.255 384.716 2.32149 488.71 1.65486L488.704 0.654883ZM721.707 0.654873H488.707V1.65487H721.707V0.654873ZM722.207 1.5V1.15487H721.207V1.5H722.207ZM721.707 2H947.5V0.999996H721.707V2ZM947.497 1.99999C1051.49 2.66661 1273 3.60012 1327.01 1.99978L1326.99 1.00022C1273 2.59987 1051.51 1.66671 947.503 1.00001L947.497 1.99999ZM1327.01 1.99978C1356.89 1.11452 1374.13 4.05846 1385.97 10.1142C1397.8 16.1646 1404.3 25.3481 1412.66 37.1731L1413.48 36.5958C1405.14 24.7977 1398.51 15.4029 1386.42 9.22394C1374.35 3.05032 1356.91 0.113607 1326.99 1.00022L1327.01 1.99978ZM1412.66 37.1731C1414.81 40.2142 1417.09 43.4281 1419.6 46.7989L1420.4 46.2011C1417.9 42.8419 1415.63 39.6379 1413.48 36.5958L1412.66 37.1731ZM1419.54 46.685C1439.72 97.3691 1436.5 129.028 1428.55 207.181L1429.54 207.282C1437.49 129.149 1440.75 97.2562 1420.46 46.315L1419.54 46.685ZM1428.55 207.181C1428.05 212.082 1427.53 217.167 1427 222.45L1428 222.55C1428.53 217.268 1429.05 212.184 1429.54 207.282L1428.55 207.181ZM1427 222.432C1415.02 309.825 1378.07 371.252 1358.57 403.24L1359.43 403.76C1378.93 371.748 1415.98 310.175 1428 222.568L1427 222.432ZM1358.57 403.24C1348.9 419.111 1332.51 429.807 1313.99 437.602C1295.48 445.395 1274.89 450.262 1256.89 454.513L1257.11 455.487C1275.11 451.238 1295.77 446.355 1314.38 438.523C1332.99 430.693 1349.6 419.889 1359.43 403.76L1358.57 403.24ZM1256.89 454.513C1199.2 467.998 1129.88 470 1068.65 467.188C1007.42 464.377 954.325 456.754 929.111 451.012L928.889 451.988C954.175 457.746 1007.33 465.374 1068.6 468.187C1129.87 471 1199.3 469.002 1257.11 455.487L1256.89 454.513ZM929.115 451.013C908.919 446.261 895.602 438.528 885.409 428.826C875.203 419.11 868.108 407.402 860.375 394.633L859.519 395.151C867.241 407.901 874.4 419.727 884.72 429.55C895.054 439.387 908.535 447.198 928.885 451.987L929.115 451.013ZM860.375 394.633C856.391 388.055 852.238 381.199 847.411 374.216L846.589 374.784C851.396 381.74 855.533 388.57 859.519 395.151L860.375 394.633ZM847.398 374.198C831.507 353.277 806.016 340.319 780.671 332.609C755.317 324.897 730.042 322.416 714.497 322.5L714.503 323.5C729.958 323.417 755.133 325.886 780.38 333.566C805.634 341.248 830.893 354.123 846.602 374.802L847.398 374.198ZM715 323V322.783H714V323H715Z" fill="#E21717"/>
</svg>
